<svg xmlns="http://www.w3.org/2000/svg" xml:space="preserve" width="655.359" height="655.359" style="shape-rendering:geometricPrecision;text-rendering:geometricPrecision;image-rendering:optimizeQuality;fill-rule:evenodd;clip-rule:evenodd" viewBox="0 0 6.827 6.827"><defs><style>.fil0{fill:none}</style></defs><g id="Layer_x0020_1"><g id="_250320592"><path id="_250320784" class="fil0" d="M0 0h6.827v6.827H0z"/><path id="_250320904" class="fil0" d="M.853.853h5.12v5.12H.853z"/></g><g id="_250319536"><path id="_250320400" d="M5.268 2.2v1.855H2.768V2.2h2.5z" style="fill:#a1887f;fill-rule:nonzero"/><path id="_250319776" style="fill:#ef5350;fill-rule:nonzero" d="M4.664.853H4.948V1.494h-.337V.853z"/><path id="_250319824" style="fill:#d7ccc8;fill-rule:nonzero" d="M5.268 2.2v1.855h-.887V2.959h-.726v1.096h-.887V2.2z"/><path id="_250319752" style="fill:#bcaaa4;fill-rule:nonzero" d="M5.268 2.2v.142h-2.5v-.141z"/><path id="_250320376" style="fill:#8d6e63;fill-rule:nonzero" d="m5.275 1.359.318.874h-3.15l.318-.874z"/><path id="_250320256" d="M5.122 2.233h-.055v-.874h.055v.874zm-.24 0h-.054v-.874h.055v.874zm-.238 0h-.055v-.874h.055v.874zm-.24 0H4.35v-.874h.054v.874zm-.239 0H4.11v-.874h.055v.874zm-.24 0h-.054v-.874h.055v.874zm-.238 0h-.055v-.874h.055v.874zm-.24 0h-.055v-.874h.055v.874zm-.239 0h-.055v-.874h.055v.874zm-.24 0h-.054v-.874h.055v.874z" style="fill:#84655a;fill-rule:nonzero"/><g><path id="_250319632" d="M3.008 5.154c.772.246.72.284 1.292-.2.115-.133.67-.656.783-.232a.282.282 0 0 1-.066.182 13.847 13.847 0 0 1-.387.392l-.203.202c-1.04 1.043-1.548.054-2.384-.008l-.032-.002V4.384a3.227 3.227 0 0 1 1.854.449c.112.115.08.21-.02.328-.265.143-.989-.215-.837-.007z" style="fill:#f1c27d"/><path id="_250319320" d="M1.29 4.122h.758c.031 0 .057.03.057.065v1.447c0 .036-.026.066-.057.066H1.29c-.03 0-.056-.03-.056-.066V4.187c0-.036.025-.065.056-.065z" style="fill:#0277bd"/><circle id="_250319200" cx="1.837" cy="4.427" r=".116" style="fill:#bdbdbd"/></g></g></g></svg>